<?xml version="1.0" encoding="utf-8"?>
<!-- Generator: Adobe Illustrator 16.0.0, SVG Export Plug-In . SVG Version: 6.00 Build 0)  -->
<!DOCTYPE svg PUBLIC "-//W3C//DTD SVG 1.1//EN" "http://www.w3.org/Graphics/SVG/1.1/DTD/svg11.dtd">
<svg version="1.1" id="Layer_1" xmlns="http://www.w3.org/2000/svg" xmlns:xlink="http://www.w3.org/1999/xlink" x="0px" y="0px"
	 width="97.2px" height="81.1px" viewBox="0 0 97.2 81.1" enable-background="new 0 0 97.2 81.1" xml:space="preserve">
<g>
	<g>
		<g>
			<g>
				<path fill="#067189" d="M82.9,45.4C111.7,34.6,92.7-12.9,63.7,7"/>
				<path fill="#FFFFFF" d="M69,81.1v-7c0-1.7-1.3-3-3-3H54c-1.7,0-3,1.3-3,3v7"/>
				<path fill="#F4BB19" d="M85,35c1-4.7-1.3-13.6-7-17c-5.7-3.4-24,0-24,0v12.2h5v9.3c-1-1.4-2.4-2.3-2.9-2.3l-13,17
					c-1.7,0,11,1,11,9v8h12v-6.9c1,0,2.2-0.1,2.9-0.1c8.6,0.2,12.9-1.5,18.3-14.6C84.5,45.1,82.8,45.2,85,35z"/>
				<g>
					<path fill="#C5882B" d="M68.9,64.1c-0.2,0-0.4,0-0.6,0C68.5,64.1,68.7,64.1,68.9,64.1L68.9,64.1L68.9,64.1z"/>
					<path fill="#C5882B" d="M53,56.1c-2-1.6-6.7-4.9-7.9-4.7l-2,2.7c-1.7,0,11,1,11,9v8h12v-6.9c0.3,0,0.7,0,1.1,0
						C62.4,62.6,57.7,59.7,53,56.1z"/>
				</g>
				<path fill="#067189" d="M78.1,14.2c6,25.2-32.4,32.4-12,58.8c-15.6-9.5-7.2-28.8-7.2-28.8s-8.4,12-2.4,22.8
					c-7.2-2.4-39.7-26.9-10.8-60C54.1-2.6,75.5,3.2,78.1,14.2z"/>
			</g>
		</g>
		<path fill="#FFFFFF" d="M78,81.1c0-1.7-1.3-3-3-3H47c-1.7,0-3,1.3-3,3"/>
		<path fill="#FFFFFF" d="M81,57.2l-11-4.2c0,0,0,5.4,7,7.8C78.4,60.2,79.7,59,81,57.2z"/>
	</g>
	<ellipse fill="#067189" cx="77.5" cy="42.1" rx="1.5" ry="2"/>
	<path fill="none" stroke="#067189" stroke-width="2.0205" stroke-linecap="round" stroke-miterlimit="10" d="M73,38.1c2-4,8-5,9-3"
		/>
</g>
<g>
	<g>
		<g>
			<path fill="#067189" d="M44,60.1c13.7-18.7,11.7-51,12.4-50.4l-6,3.6l-1.2-7.2l-6,4.8c0,0-5.8-21.2-38.2-4.4l2.9,9.6H3.8
				c-0.2,0,3.5,16.7,12,27.6"/>
			<path fill="#F4BB19" d="M44,40.1h-4c0-2,0-4.1,0-7.2c0-10.8-15.6-8.4-20.4,1.2c-6-9.6-9.6-9.4-9.6,2.6c0,3.9,0,6,0,7.1
				c0,1.3,0,1.3,0,1.3l2,18l7,1.6v6.4h24l4-27.3C47,41.7,45.7,40.1,44,40.1z"/>
			<path fill="#C5882B" d="M19,64.7c5,0.4,14,2.4,20-5.6v15H19V64.7z"/>
			<ellipse fill="#067189" cx="31.5" cy="42.1" rx="1.5" ry="2"/>
			<circle fill="#F4BB19" cx="47" cy="42.1" r="7.4"/>
			<path fill="none" stroke="#C5882B" stroke-width="2.0205" stroke-linecap="round" stroke-miterlimit="10" d="M49.3,39.7
				c-1.3-1.3-3.4-1.3-4.7,0c-1.3,1.3-1.3,3.4,0,4.7"/>
		</g>
		<path fill="#010101" d="M46,81.1v-7c0-1.7-1.3-3-3-3H19c-1.7,0-3,1.3-3,3v7"/>
		<path fill="none" stroke="#067189" stroke-width="2.0205" stroke-linecap="round" stroke-miterlimit="10" d="M26,34.6
			c2.9-6.4,8.8-3.8,9.6-1.6"/>
		<g>
			<g>
				<path fill="#010101" d="M57,81.1c0-1.7-1.3-3-3-3H3c-1.7,0-3,1.3-3,3"/>
			</g>
		</g>
		<ellipse fill="#F4BB19" cx="22" cy="45.1" rx="4.6" ry="2.4"/>
	</g>
	<path fill="#FFFFFF" d="M15.9,54.3l17,0.5c0,0-1.8,6.1-14.8,5.4"/>
	<path fill="none" stroke="#C5882B" stroke-width="2.0205" stroke-linecap="round" stroke-miterlimit="10" d="M18,49.1
		c0.7,1.4,2.7,2.1,5,2.1s4.3-0.8,5-2.1"/>
	
		<polyline fill="none" stroke="#067189" stroke-width="1.7" stroke-linecap="round" stroke-linejoin="round" stroke-miterlimit="10" points="
		11.8,40.4 19,41.8 14,44.1 	"/>
</g>
</svg>
