<?xml version="1.0" encoding="utf-8"?>
<!-- Generator: Adobe Illustrator 16.0.0, SVG Export Plug-In . SVG Version: 6.00 Build 0)  -->
<!DOCTYPE svg PUBLIC "-//W3C//DTD SVG 1.1//EN" "http://www.w3.org/Graphics/SVG/1.1/DTD/svg11.dtd">
<svg version="1.1" id="Layer_1" xmlns="http://www.w3.org/2000/svg" xmlns:xlink="http://www.w3.org/1999/xlink" x="0px" y="0px"
	 width="63.3px" height="79px" viewBox="0 0 63.3 79" enable-background="new 0 0 63.3 79" xml:space="preserve">
<g>
	<g>
		<g>
			<g>
				<path fill="#067189" d="M49,43.3C77.8,32.5,58.8-15,29.8,4.9"/>
				<path fill="#FFFFFF" d="M35.1,79v-7c0-1.7-1.3-3-3-3h-12c-1.7,0-3,1.3-3,3v7"/>
				<path fill="#F4BB19" d="M51.1,32.8c1-4.7-1.3-13.6-7-17c-5.7-3.4-24,0-24,0V28h5v9.3c-1-1.4-2.4-2.3-2.9-2.3l-13,17
					c-1.7,0,11,1,11,9v8h12V62c1,0,2.2-0.1,2.9-0.1c8.6,0.2,12.9-1.5,18.3-14.6C50.6,43,48.9,43.1,51.1,32.8z"/>
				<g>
					<path fill="#C5882B" d="M35,62c-0.2,0-0.4,0-0.6,0C34.6,62,34.8,62,35,62L35,62L35,62z"/>
					<path fill="#C5882B" d="M19.1,54c-2-1.6-6.7-4.9-7.9-4.7l-2,2.7c-1.7,0,11,1,11,9v8h12V62c0.3,0,0.7,0,1.1,0
						C28.5,60.4,23.7,57.6,19.1,54z"/>
				</g>
				<path fill="#067189" d="M44.2,12.1c6,25.2-32.4,32.4-12,58.8C16.6,61.3,25,42.1,25,42.1s-8.4,12-2.4,22.8
					c-7.2-2.4-39.7-26.9-10.8-60C20.2-4.7,41.6,1,44.2,12.1z"/>
			</g>
		</g>
		<path fill="#FFFFFF" d="M44.1,79c0-1.7-1.3-3-3-3h-28c-1.7,0-3,1.3-3,3"/>
		<path fill="#FFFFFF" d="M47.1,55.1l-11-4.2c0,0,0,5.4,7,7.8C44.5,58.1,45.8,56.9,47.1,55.1z"/>
	</g>
	<ellipse fill="#067189" cx="43.6" cy="40" rx="1.5" ry="2"/>
	<path fill="none" stroke="#067189" stroke-width="2.0205" stroke-linecap="round" stroke-miterlimit="10" d="M39.1,36c2-4,8-5,9-3"
		/>
</g>
</svg>
