<?xml version="1.0" encoding="utf-8"?>
<!-- Generator: Adobe Illustrator 16.0.0, SVG Export Plug-In . SVG Version: 6.00 Build 0)  -->
<!DOCTYPE svg PUBLIC "-//W3C//DTD SVG 1.1//EN" "http://www.w3.org/Graphics/SVG/1.1/DTD/svg11.dtd">
<svg version="1.1" id="Layer_1" xmlns="http://www.w3.org/2000/svg" xmlns:xlink="http://www.w3.org/1999/xlink" x="0px" y="0px"
	 width="265px" height="256px" viewBox="0 0 265 256" enable-background="new 0 0 265 256" xml:space="preserve">
<polygon fill="#E64380" points="119.8,27.7 116,32 108,32 104,36 100,36 96,40 96,44 104,44 100,48 100,60 104,60 108,64 108,68 
	112,64 120,64 120,56 124,56 128,52 124,48 124,40 128,36 "/>
<polygon fill="#E64380" points="128,52 124,48 124,40 128,36 119.8,27.7 124,24 124,20 128,20 132,24 140,24 144,28 168,28 172,32 
	176,32 172,36 172,44 168,48 164,48 164,56 160,60 156,60 152,56 140,56 136,52 132,52 "/>
<polygon fill="#E64380" points="160,60 164,56 164,48 168,48 172,44 172,36 176,32 180,32 184,28 184,24 188,24 188,28 184,32 
	188,36 192,36 192,40 196,40 192,44 192,48 188,52 188,68 192,68 196,72 196,76 200,76 204,80 200,84 204,84 204,88 200,92 196,92 
	196,96 192,96 188,92 188,88 184,88 184,84 180,84 176,88 168,88 164,84 164,80 160,80 160,76 156,76 160,72 "/>
<polygon fill="#E64380" points="100,48 92,48 88,52 88,48 72,48 68,44 68,36 64,36 64,40 60,36 56,36 56,44 64,52 64,64 68,68 
	64,68 64,72 84,72 88,68 92,72 92,76 96,72 100,72 100,76 104,80 108,80 108,76 112,72 108,68 108,64 104,60 100,60 "/>
<polygon fill="#E64380" points="124,20 124,8 128,4 132,4 136,0 140,0 144,4 144,8 148,12 152,8 156,12 156,16 164,16 164,20 
	168,20 172,24 172,28 172,32 168,28 144,28 140,24 132,24 128,20 "/>
<polyline fill="#E64380" points="124,60 124,68 128,72 132,72 132,76 136,76 140,80 140,84 144,80 148,80 152,76 156,76 160,72 
	160,60 156,60 152,56 140,56 136,52 132,52 128,52 124,56 120,56 120,60 124,60 "/>
<polygon fill="#E64380" points="64,68 60,68 56,64 56,68 44,68 40,72 40,68 32,60 28,64 24,64 24,68 20,64 20,68 16,64 12,68 4,68 
	0,72 0,76 4,76 8,72 8,76 12,76 8,80 12,80 8,84 4,84 8,88 8,92 12,92 16,88 20,92 28,92 32,96 40,96 36,100 40,100 44,96 48,100 
	52,100 52,96 56,92 64,92 68,88 68,92 72,88 72,72 64,72 "/>
<polyline fill="#E64380" points="72,72 72,88 68,92 68,88 64,92 56,92 52,96 52,100 48,100 44,104 48,108 52,104 56,104 52,108 
	56,112 52,116 52,120 56,120 56,124 60,128 64,128 68,132 80,132 84,128 80,124 80,116 76,112 92,112 96,108 96,100 100,96 104,96 
	104,92 108,92 108,84 112,80 108,80 104,80 100,76 100,72 96,72 92,76 92,72 88,68 84,72 "/>
<polygon fill="#E64380" points="80,160 80,156 72,148 68,148 68,144 64,140 68,140 72,144 72,140 68,136 72,132 80,132 84,128 
	80,124 80,116 76,112 92,112 96,108 100,112 100,116 104,116 104,112 108,116 108,120 112,120 112,124 116,128 112,132 108,132 
	108,140 112,144 108,144 104,148 104,152 100,152 100,156 96,160 96,164 88,164 84,160 "/>
<polygon fill="#E64380" points="72,156 76,156 76,164 80,168 84,168 80,164 80,160 84,160 88,164 96,164 96,160 100,156 100,152 
	104,152 104,148 108,148 108,152 112,152 116,156 116,160 120,164 120,172 112,180 112,184 108,188 112,192 108,192 104,196 96,196 
	96,200 92,196 88,200 88,208 92,208 92,220 88,224 88,228 80,228 80,224 76,224 72,220 68,224 64,220 68,216 64,216 60,212 68,204 
	68,184 72,180 72,176 68,180 68,168 72,164 "/>
<polygon fill="#E64380" points="148,80 144,80 140,84 140,80 136,76 132,76 132,72 128,72 124,68 124,60 120,60 120,64 112,64 
	108,68 112,72 108,76 108,80 112,80 108,84 108,92 104,92 104,96 100,96 96,100 96,108 100,112 100,116 104,116 104,112 108,116 
	108,120 112,120 112,124 116,128 120,128 120,132 124,128 140,128 144,124 144,120 148,120 152,116 152,108 148,104 148,92 152,88 
	152,84 "/>
<polygon fill="#E64380" points="192,96 188,92 188,88 184,88 184,84 180,84 176,88 168,88 164,84 164,80 160,80 160,76 152,76 
	148,80 152,84 152,88 148,92 148,104 152,108 152,116 152,120 156,120 160,124 160,120 168,128 168,136 176,136 180,132 184,136 
	184,132 188,128 196,128 196,116 192,112 200,104 196,104 196,100 200,96 "/>
<polygon fill="#E64380" points="136,128 124,128 120,132 120,128 116,128 112,124 112,120 112,124 116,128 112,132 108,132 108,140 
	112,144 108,144 104,148 108,148 108,152 112,152 116,156 116,160 120,164 120,168 124,168 128,172 132,168 136,164 136,160 
	140,156 140,144 144,140 144,136 140,132 136,132 "/>
<polygon fill="#E64380" points="168,140 164,144 164,148 168,152 168,156 168,160 172,156 176,156 180,160 176,164 176,168 168,176 
	164,172 160,172 156,168 152,172 152,176 148,176 148,172 144,168 144,172 140,176 136,176 136,172 132,168 136,164 136,160 
	140,156 140,144 144,140 144,136 140,132 136,132 136,128 140,128 144,124 144,120 148,120 152,116 152,120 156,120 160,124 
	160,120 168,128 "/>
<polygon fill="#E64380" points="168,176 176,168 176,164 180,160 176,156 172,156 168,160 168,156 168,152 164,148 164,144 168,140 
	168,136 176,136 180,132 184,136 184,132 188,128 196,128 196,132 204,132 208,128 212,132 208,136 212,136 216,132 216,128 
	220,128 224,132 224,140 228,144 224,144 224,148 228,152 228,156 232,156 232,160 228,160 224,164 220,164 216,168 212,164 
	212,168 216,172 208,172 204,176 200,176 200,184 196,184 200,188 204,188 204,192 196,192 192,188 184,188 180,184 180,188 
	176,188 172,184 168,184 "/>
<polygon fill="#E64380" points="236,192 232,192 228,188 224,184 224,180 228,176 228,172 224,172 220,168 220,164 216,168 212,164 
	212,168 216,172 208,172 204,176 200,176 200,184 196,184 200,188 204,188 204,192 196,192 192,188 184,188 180,184 180,188 
	184,192 184,196 180,200 180,204 176,204 172,208 176,212 176,208 180,212 188,212 192,216 196,212 196,216 200,216 204,220 
	208,220 208,224 212,220 220,220 220,216 224,212 224,208 228,208 232,204 236,204 236,200 240,196 240,188 "/>
<polyline fill="#E64380" points="128,236 124,232 116,232 112,228 104,228 108,232 92,232 88,228 88,224 92,220 92,208 88,208 
	88,200 92,196 96,200 96,196 104,196 108,192 112,192 108,188 112,184 112,180 120,172 120,168 124,168 128,172 132,168 136,172 
	136,176 140,176 144,172 144,168 148,172 148,176 152,180 152,188 156,188 156,192 160,196 156,200 152,200 152,204 144,204 
	144,208 140,212 128,212 124,216 128,220 132,220 132,224 128,228 132,228 136,232 132,232 128,236 "/>
<polygon fill="#E64380" points="172,208 168,208 160,216 156,216 152,220 152,236 156,240 152,240 144,240 140,244 140,240 136,240 
	132,244 128,240 128,236 132,232 136,232 132,228 128,228 132,224 132,220 128,220 124,216 128,212 140,212 144,208 144,204 
	152,204 152,200 156,200 160,196 156,192 156,188 152,188 152,180 148,176 152,176 152,172 156,168 160,172 164,172 168,176 
	168,184 172,184 176,188 180,188 184,192 184,196 180,200 180,204 176,204 "/>
<polygon fill="#E64380" points="240,56 236,60 232,60 228,56 224,60 228,64 232,64 232,68 228,72 228,76 232,76 228,80 228,84 
	224,88 224,92 220,88 212,88 208,84 208,88 204,88 204,84 200,84 204,80 200,76 196,76 196,72 192,68 188,68 188,52 192,48 192,44 
	196,40 196,44 216,44 220,48 220,52 228,52 232,56 232,52 236,52 "/>
<polygon fill="#E64380" points="240,56 252,56 248,60 248,64 244,64 244,68 240,72 240,80 236,84 240,88 236,92 236,100 232,100 
	228,96 228,92 224,92 224,88 228,84 228,80 232,76 228,76 228,72 232,68 232,64 228,64 224,60 228,56 232,60 236,60 "/>
<polygon fill="#E64380" points="228,100 224,100 224,104 228,104 216,116 216,120 212,124 208,124 208,128 204,132 196,132 196,116 
	192,112 200,104 196,104 196,100 200,96 196,96 196,92 200,92 204,88 208,88 208,84 212,88 220,88 224,92 228,92 "/>
<polygon fill="#E64380" points="261,208 261,216 257,220 253,220 249,224 245,228 249,232 245,232 245,236 249,236 245,240 249,240 
	249,244 249,248 253,248 249,252 253,252 257,256 261,252 261,240 265,236 265,224 261,220 265,216 265,212 "/>
</svg>
