<?xml version="1.0" encoding="utf-8"?>
<!-- Generator: Adobe Illustrator 16.0.0, SVG Export Plug-In . SVG Version: 6.00 Build 0)  -->
<!DOCTYPE svg PUBLIC "-//W3C//DTD SVG 1.1//EN" "http://www.w3.org/Graphics/SVG/1.1/DTD/svg11.dtd">
<svg version="1.1" id="Layer_1" xmlns="http://www.w3.org/2000/svg" xmlns:xlink="http://www.w3.org/1999/xlink" x="0px" y="0px"
	 width="126px" height="122px" viewBox="0 0 126 122" enable-background="new 0 0 126 122" xml:space="preserve">
<polygon fill="#81BFC9" points="120,28 118,26 116,26 116,28 114,26 110,26 110,24 108,22 98,22 98,20 96,20 96,18 94,18 92,16 
	94,14 94,12 92,12 92,14 90,16 88,16 86,16 86,14 86,12 84,10 82,10 82,8 78,8 78,6 76,4 74,6 72,4 72,2 70,0 68,0 66,2 64,2 62,4 
	62,10 62,12 59.9,13.9 58,16 54,16 52,18 50,18 48,20 48,22 52,22 50,24 46,24 44,26 44,24 36,24 34,22 34,18 32,18 32,20 30,18 
	28,18 28,22 32,26 32,32 34,34 32,34 30,34 28,32 28,34 22,34 20,36 20,34 16,30 14,32 12,32 12,34 10,32 10,34 8,32 6,34 2,34 
	0,36 0,38 2,38 4,36 4,38 6,38 4,40 6,40 4,42 2,42 4,44 4,46 6,46 8,44 10,46 14,46 16,48 20,48 18,50 20,50 22,48 24,50 22,52 
	24,54 26,52 28,52 26,54 28,56 26,58 26,60 28,60 28,62 30,64 32,64 34,66 36,66 34,68 36,70 36,72 34,70 32,70 34,72 34,74 36,74 
	40,78 40,80 40,82 42,84 40,84 38,82 38,78 36,78 36,82 34,84 34,90 36,88 36,90 34,92 34,102 30,106 32,108 34,108 32,110 34,112 
	36,110 38,112 40,112 40,114 44,114 46,116 54,116 52,114 56,114 58,116 62,116 64,118 64,120 66,122 68,120 70,120 70,122 72,120 
	76,120 78,120 76,118 76,110 78,108 80,108 84,104 86,104 88,106 88,104 90,106 94,106 96,108 98,106 98,108 100,108 102,110 
	104,110 104,112 106,110 110,110 110,108 112,106 112,104 114,104 116,102 118,102 118,100 120,98 120,94 118,96 116,96 114,94 
	112,92 112,90 114,88 114,86 112,86 110,84 110,82 112,82 114,80 116,80 116,78 114,78 114,76 112,74 112,72 114,72 112,70 112,66 
	110,64 108,64 108,66 106,68 104,68 106,66 104,64 104,62 106,62 108,60 108,58 114,52 112,52 112,50 114,50 114,48 116,50 118,50 
	118,46 120,44 118,42 120,40 120,36 122,34 122,32 124,32 124,30 126,28 "/>
</svg>
