<?xml version="1.0" encoding="utf-8"?>
<!-- Generator: Adobe Illustrator 16.0.0, SVG Export Plug-In . SVG Version: 6.00 Build 0)  -->
<!DOCTYPE svg PUBLIC "-//W3C//DTD SVG 1.1//EN" "http://www.w3.org/Graphics/SVG/1.1/DTD/svg11.dtd">
<svg version="1.1" id="Layer_1" xmlns="http://www.w3.org/2000/svg" xmlns:xlink="http://www.w3.org/1999/xlink" x="0px" y="0px"
	 width="121.3px" height="36.8px" viewBox="0 0 121.3 36.8" enable-background="new 0 0 121.3 36.8" xml:space="preserve">
<g>
	<g>
		<path fill="#010101" stroke="#1E181A" stroke-width="4.9729" d="M119.2,14.1"/>
	</g>
	<g>
		<path fill="#E84483" d="M29.3,12c-1.6-2.4-4.3-3.9-7.2-3.9c-2.7,0-5.2,1.3-6.7,3.2c-1.6-2-4.1-3.2-6.7-3.2C3.9,8.1,0,12,0,16.8
			v14.4h3.8V16.8C3.8,14.1,6,12,8.6,12c1.6,0,3.1,0.8,4,2.2c0.5,0.8,0.8,1.7,0.8,2.7v14.4h3.8V16.8c0-2.7,2.2-4.8,4.8-4.8
			c1.6,0,3.1,0.8,4,2.2c0.5,0.8,0.8,1.7,0.8,2.7v14.4h3.8V16.8C30.8,15.1,30.3,13.4,29.3,12z"/>
	</g>
	<g>
		<circle fill="#010101" cx="94.4" cy="2.3" r="2.2"/>
	</g>
	<g>
		<rect x="92.5" y="8" fill="#010101" width="3.8" height="23"/>
	</g>
	<g>
		<path fill="none" stroke="#464544" stroke-width="4.9729" d="M35,14.1"/>
	</g>
	<g>
		<path fill="#010101" d="M110.7,27.4c-4.3,0-7.8-3.5-7.8-7.8c0-4.3,3.5-7.8,7.8-7.8c2.4,0,4.7,1.1,6.2,3.1h4.4
			c-0.3-0.6-0.6-1.1-0.9-1.7c-2.2-3.3-5.8-5.2-9.7-5.2c-6.4,0-11.7,5.2-11.7,11.7s5.2,11.7,11.7,11.7c3.9,0,7.6-2,9.7-5.2
			c0.3-0.5,0.6-1.1,0.9-1.6h-4.4C115.4,26.2,113.1,27.4,110.7,27.4z"/>
	</g>
	<g>
		<path fill="#E84483" d="M53.7,18.3C53.7,12.7,49.1,8,43.4,8c-3.5,0-6.7,1.7-8.6,4.6c-1.1,1.7-1.7,3.7-1.7,5.7v1h0l0,1h0
			c0.7,8.2,7.6,10.5,13.2,12.6c2.6,1,5.1,1.9,6.7,3.3l0.6,0.6V32l-0.2-0.1c-1.1-0.7-2.7-1.2-4.5-1.8c-4.9-1.7-11.5-3.8-11.9-9.7
			h16.6V18.3z M36.9,17l0.1-0.4c0.2-0.7,0.5-1.4,0.9-2c1.2-1.8,3.3-2.9,5.5-2.9c3,0,5.7,2.1,6.4,5l0.1,0.4H36.9z"/>
	</g>
	<g>
		<path fill="#010101" d="M55.1,20.3h16.6c-0.4,5.9-7,8-11.9,9.7c-1.8,0.6-3.4,1.2-4.5,1.8L55.1,32v4.7l0.6-0.6
			c1.6-1.4,4.1-2.3,6.7-3.3c5.7-2.1,12.6-4.4,13.2-12.6h0l0-1h0v-1c0-2-0.6-4-1.7-5.7C72,9.8,68.8,8,65.4,8
			c-5.7,0-10.3,4.6-10.3,10.3V20.3z M58.9,17l0.1-0.4c0.7-2.9,3.4-5,6.4-5c2.2,0,4.3,1.1,5.5,2.9c0.4,0.6,0.7,1.3,0.9,2l0.1,0.4
			H58.9z"/>
	</g>
	<polygon fill="#010101" points="90,8 83.7,8 83.7,0 79.9,0 79.9,8 76.4,8 76.4,11.8 79.9,11.8 79.9,31 83.7,31 83.7,11.8 90,11.8 	
		"/>
</g>
</svg>
