<?xml version="1.0" encoding="utf-8"?>
<!-- Generator: Adobe Illustrator 16.0.0, SVG Export Plug-In . SVG Version: 6.00 Build 0)  -->
<!DOCTYPE svg PUBLIC "-//W3C//DTD SVG 1.1//EN" "http://www.w3.org/Graphics/SVG/1.1/DTD/svg11.dtd">
<svg version="1.1" id="Layer_1" xmlns="http://www.w3.org/2000/svg" xmlns:xlink="http://www.w3.org/1999/xlink" x="0px" y="0px"
	 width="57px" height="81.1px" viewBox="0 0 57 81.1" enable-background="new 0 0 57 81.1" xml:space="preserve">
<g>
	<g>
		<g>
			<path fill="#067189" d="M44,60.1c13.7-18.7,11.7-51,12.4-50.4l-6,3.6l-1.2-7.2l-6,4.8c0,0-5.8-21.2-38.2-4.4l2.9,9.6H3.8
				c-0.2,0,3.5,16.7,12,27.6"/>
			<path fill="#F4BB19" d="M44,40.1h-4c0-2,0-4.1,0-7.2c0-10.8-15.6-8.4-20.4,1.2c-6-9.6-9.6-9.4-9.6,2.6c0,3.9,0,6,0,7.1
				c0,1.3,0,1.3,0,1.3l2,18l7,1.6v6.4h24l4-27.3C47,41.7,45.7,40.1,44,40.1z"/>
			<path fill="#C5882B" d="M19,64.7c5,0.4,14,2.4,20-5.6v15H19V64.7z"/>
			<ellipse fill="#067189" cx="31.5" cy="42.1" rx="1.5" ry="2"/>
			<circle fill="#F4BB19" cx="47" cy="42.1" r="7.4"/>
			<path fill="none" stroke="#C5882B" stroke-width="2.0205" stroke-linecap="round" stroke-miterlimit="10" d="M49.3,39.7
				c-1.3-1.3-3.4-1.3-4.7,0c-1.3,1.3-1.3,3.4,0,4.7"/>
		</g>
		<path fill="#010101" d="M46,81.1v-7c0-1.7-1.3-3-3-3H19c-1.7,0-3,1.3-3,3v7"/>
		<path fill="none" stroke="#067189" stroke-width="2.0205" stroke-linecap="round" stroke-miterlimit="10" d="M26,34.6
			c2.9-6.4,8.8-3.8,9.6-1.6"/>
		<g>
			<g>
				<path fill="#010101" d="M57,81.1c0-1.7-1.3-3-3-3H3c-1.7,0-3,1.3-3,3"/>
			</g>
		</g>
		<ellipse fill="#F4BB19" cx="22" cy="45.1" rx="4.6" ry="2.4"/>
	</g>
	<path fill="#FFFFFF" d="M15.9,54.3l17,0.5c0,0-1.8,6.1-14.8,5.4"/>
	<path fill="none" stroke="#C5882B" stroke-width="2.0205" stroke-linecap="round" stroke-miterlimit="10" d="M18,49.1
		c0.7,1.4,2.7,2.1,5,2.1s4.3-0.8,5-2.1"/>
	
		<polyline fill="none" stroke="#067189" stroke-width="1.7" stroke-linecap="round" stroke-linejoin="round" stroke-miterlimit="10" points="
		11.8,40.4 19,41.8 14,44.1 	"/>
</g>
</svg>
