<?xml version="1.0" encoding="utf-8"?>
<!DOCTYPE svg PUBLIC "-//W3C//DTD SVG 1.1//EN" "http://www.w3.org/Graphics/SVG/1.1/DTD/svg11.dtd">
<svg version="1.1" xmlns="http://www.w3.org/2000/svg" xmlns:xlink="http://www.w3.org/1999/xlink" x="0px" y="0px"
	 width="48px" height="60px" viewBox="0 0 48 60" enable-background="new 0 0 48 60" xml:space="preserve">
<polygon fill="#F4BB19" points="36,24 32,28 32,32 36,36 36,40 36,44 40,40 44,40 48,44 44,48 44,52 36,60 32,56 28,56 24,52 20,56 
	20,60 16,60 16,56 12,52 12,56 8,60 4,60 4,56 0,52 4,48 4,44 8,40 8,28 12,24 12,20 8,16 4,16 4,12 8,12 12,8 12,4 16,4 20,0 20,4 
	24,4 28,8 28,4 36,12 "/>
</svg>
