<?xml version="1.0" encoding="utf-8"?>
<!DOCTYPE svg PUBLIC "-//W3C//DTD SVG 1.1//EN" "http://www.w3.org/Graphics/SVG/1.1/DTD/svg11.dtd">
<svg version="1.1" xmlns="http://www.w3.org/2000/svg" xmlns:xlink="http://www.w3.org/1999/xlink" x="0px" y="0px"
	 width="60px" height="80px" viewBox="0 0 60 80" enable-background="new 0 0 60 80" xml:space="preserve">
<polygon fill="#F4BB19" points="12,8 16,8 16,16 20,20 24,20 20,16 20,12 24,12 28,16 36,16 36,12 40,8 40,4 44,4 44,0 48,0 48,4 
	52,4 56,8 56,12 60,16 60,24 52,32 52,36 48,40 52,44 48,44 44,48 36,48 36,52 32,48 28,52 28,60 32,60 32,72 28,76 28,80 20,80 
	20,76 16,76 12,72 8,76 4,72 8,68 4,68 0,64 8,56 8,36 12,32 12,28 8,32 8,20 12,16 "/>
</svg>
