<?xml version="1.0" encoding="utf-8"?>
<!-- Generator: Adobe Illustrator 16.0.0, SVG Export Plug-In . SVG Version: 6.00 Build 0)  -->
<!DOCTYPE svg PUBLIC "-//W3C//DTD SVG 1.1//EN" "http://www.w3.org/Graphics/SVG/1.1/DTD/svg11.dtd">
<svg version="1.1" id="Layer_1" xmlns="http://www.w3.org/2000/svg" xmlns:xlink="http://www.w3.org/1999/xlink" x="0px" y="0px"
	 width="52px" height="52px" viewBox="0 0 52 52" enable-background="new 0 0 52 52" xml:space="preserve">
<polygon fill="#F4BB19" points="52,16 48,20 44,20 40,16 36,20 40,24 44,24 44,28 40,32 40,36 44,36 40,40 40,44 36,48 36,52 32,48 
	24,48 20,44 20,48 16,48 16,44 12,44 16,40 12,36 8,36 8,32 4,28 0,28 0,12 4,8 4,4 8,0 8,4 28,4 32,8 32,12 40,12 44,16 44,12 
	48,12 "/>
</svg>
