<?xml version="1.0" encoding="utf-8"?>
<!DOCTYPE svg PUBLIC "-//W3C//DTD SVG 1.1//EN" "http://www.w3.org/Graphics/SVG/1.1/DTD/svg11.dtd">
<svg version="1.1" xmlns="http://www.w3.org/2000/svg" xmlns:xlink="http://www.w3.org/1999/xlink" x="0px" y="0px"
	 width="60px" height="76px" viewBox="0 0 60 76" enable-background="new 0 0 60 76" xml:space="preserve">
<polygon fill="#e64280" points="48,40 44,40 36,48 32,48 28,52 28,68 32,72 28,72 20,72 16,76 16,72 12,72 8,76 4,72 4,68 8,64 
	12,64 8,60 4,60 8,56 8,52 4,52 0,48 4,44 16,44 20,40 20,36 28,36 28,32 32,32 36,28 32,24 32,20 28,20 28,12 24,8 28,8 28,4 32,0 
	36,4 40,4 44,8 44,16 48,16 52,20 56,20 60,24 60,28 56,32 56,36 52,36 "/>
</svg>
