<?xml version="1.0" encoding="utf-8"?>
<!DOCTYPE svg PUBLIC "-//W3C//DTD SVG 1.1//EN" "http://www.w3.org/Graphics/SVG/1.1/DTD/svg11.dtd">
<svg version="1.1" xmlns="http://www.w3.org/2000/svg" xmlns:xlink="http://www.w3.org/1999/xlink" x="0px" y="0px"
	 width="61.6px" height="61.6px" viewBox="0 0 61.6 61.6" enable-background="new 0 0 61.6 61.6" xml:space="preserve">
<g>
	<path fill="#e64280" d="M16.5,28.8h-1.7v7h1.5c2.3,0,3.5-1,3.5-3.5C19.8,29.8,18.7,28.8,16.5,28.8z"/>
	<path fill="#e64280" d="M29.2,28.2c-1,0-1.7,0.3-2.2,1s-0.7,1.6-0.7,2.9s0.2,2.2,0.7,2.9s1.2,1,2.2,1c1.9,0,2.9-1.3,2.9-3.9
		C32.1,29.5,31.1,28.2,29.2,28.2z"/>
	<path fill="#e64280" d="M30.8,0C13.8,0,0,13.8,0,30.8s13.8,30.8,30.8,30.8c17,0,30.8-13.8,30.8-30.8S47.8,0,30.8,0z M20.7,36.3
		c-1.1,1-2.6,1.5-4.6,1.5h-3.2v-11h3.6c1.9,0,3.3,0.3,4.3,1.3s1.5,2.3,1.5,4C22.3,34,21.8,35.3,20.7,36.3z M33.2,36.4
		c-0.9,1-2.3,1.5-4,1.5s-3.1-0.5-4-1.5s-1.4-2.5-1.4-4.4s0.5-3.4,1.4-4.4s2.3-1.5,4-1.5s3.1,0.5,4,1.5s1.4,2.5,1.4,4.4
		C34.6,34,34.2,35.4,33.2,36.4z M48.8,37.8h-2v-5.4c0-0.3-0.1-0.6-0.1-0.9s-0.1-1.7,0-2.7h-0.1l-2.9,9h-2.2l-2.8-9h-0.1
		c0.1,2,0.2,3.1,0.2,3.7v5.3h-2v-11h3.1l2.7,8h0l2.9-8h3.3V37.8z"/>
</g>
</svg>
