<?xml version="1.0" encoding="utf-8"?>
<!DOCTYPE svg PUBLIC "-//W3C//DTD SVG 1.1//EN" "http://www.w3.org/Graphics/SVG/1.1/DTD/svg11.dtd">
<svg version="1.1" xmlns="http://www.w3.org/2000/svg" xmlns:xlink="http://www.w3.org/1999/xlink" x="0px" y="0px"
	 width="52px" height="56px" viewBox="0 0 52 56" enable-background="new 0 0 52 56" xml:space="preserve">
<polygon fill="#e64280" points="16,52 16,48 8,40 4,40 4,36 0,32 4,32 8,36 8,32 4,28 8,24 16,24 20,20 16,16 16,8 12,4 28,4 32,0 
	36,4 36,8 40,8 40,4 44,8 44,12 48,12 48,16 52,20 48,24 44,24 44,32 48,36 44,36 40,40 40,44 36,44 36,48 32,52 32,56 24,56 20,52 
	"/>
</svg>
