<?xml version="1.0" encoding="utf-8"?>
<!DOCTYPE svg PUBLIC "-//W3C//DTD SVG 1.1//EN" "http://www.w3.org/Graphics/SVG/1.1/DTD/svg11.dtd">
<svg version="1.1" xmlns="http://www.w3.org/2000/svg" xmlns:xlink="http://www.w3.org/1999/xlink" x="0px" y="0px"
	 width="40px" height="52px" viewBox="0 0 40 52" enable-background="new 0 0 40 52" xml:space="preserve">
<polygon fill="#e64280" points="32,8 20,8 16,12 16,8 12,8 8,4 8,0 8,4 12,8 8,12 4,12 4,20 8,24 4,24 0,28 4,28 4,32 8,32 12,36 
	12,40 16,44 16,48 20,48 24,52 28,48 32,44 32,40 36,36 36,24 40,20 40,16 36,12 32,12 "/>
</svg>
