<?xml version="1.0" encoding="utf-8"?>
<!DOCTYPE svg PUBLIC "-//W3C//DTD SVG 1.1//EN" "http://www.w3.org/Graphics/SVG/1.1/DTD/svg11.dtd">
<svg version="1.1" xmlns="http://www.w3.org/2000/svg" xmlns:xlink="http://www.w3.org/1999/xlink" x="0px" y="0px"
	 width="56px" height="44px" viewBox="0 0 56 44" enable-background="new 0 0 56 44" xml:space="preserve">
<polygon fill="#e64280" points="44,12 36,12 32,16 32,12 16,12 12,8 12,0 8,0 8,4 4,0 0,0 0,8 8,16 8,28 12,32 8,32 8,36 28,36 
	32,32 36,36 36,40 40,36 44,36 44,40 48,44 52,44 52,40 56,36 52,32 52,28 48,24 44,24 "/>
</svg>
