<?xml version="1.0" encoding="utf-8"?>
<!DOCTYPE svg PUBLIC "-//W3C//DTD SVG 1.1//EN" "http://www.w3.org/Graphics/SVG/1.1/DTD/svg11.dtd">
<svg version="1.1" xmlns="http://www.w3.org/2000/svg" xmlns:xlink="http://www.w3.org/1999/xlink" x="0px" y="0px"
	 width="56px" height="72px" viewBox="0 0 56 72" enable-background="new 0 0 56 72" xml:space="preserve">
<polygon fill="#F4BB19" points="52,20 48,20 44,24 44,20 40,16 36,16 36,12 32,12 28,8 28,0 24,0 24,4 16,4 12,8 16,12 12,16 12,20 
	16,20 12,24 12,32 8,32 8,36 4,36 0,40 0,48 4,52 4,56 8,56 8,52 12,56 12,60 16,60 16,64 20,68 24,68 24,72 28,68 44,68 48,64 
	48,60 52,60 56,56 56,48 52,44 52,32 56,28 56,24 "/>
</svg>
