<?xml version="1.0" encoding="utf-8"?>
<!DOCTYPE svg PUBLIC "-//W3C//DTD SVG 1.1//EN" "http://www.w3.org/Graphics/SVG/1.1/DTD/svg11.dtd">
<svg version="1.1" xmlns="http://www.w3.org/2000/svg" xmlns:xlink="http://www.w3.org/1999/xlink" x="0px" y="0px"
	 width="28px" height="44px" viewBox="0 0 28 44" enable-background="new 0 0 28 44" xml:space="preserve">
<polygon fill="#e64280" points="16,0 28,0 24,4 24,8 20,8 20,12 16,16 16,24 12,28 16,32 12,36 12,44 8,44 4,40 4,36 0,36 0,32 
	4,28 4,24 8,20 4,20 4,16 8,12 8,8 4,8 0,4 4,0 8,4 12,4 "/>
</svg>
