<?xml version="1.0" encoding="utf-8"?>
<!DOCTYPE svg PUBLIC "-//W3C//DTD SVG 1.1//EN" "http://www.w3.org/Graphics/SVG/1.1/DTD/svg11.dtd">
<svg version="1.1" xmlns="http://www.w3.org/2000/svg" xmlns:xlink="http://www.w3.org/1999/xlink" x="0px" y="0px"
	 width="68px" height="60px" viewBox="0 0 68 60" enable-background="new 0 0 68 60" xml:space="preserve">
<polygon fill="#e64280" points="64,28 60,28 56,24 52,20 52,16 56,12 56,8 52,8 48,4 48,0 44,4 40,0 40,4 44,8 36,8 32,12 28,12 
	28,20 24,20 28,24 32,24 32,28 24,28 20,24 12,24 8,20 8,24 12,28 12,32 8,36 8,40 4,40 0,44 4,48 4,44 8,48 16,48 20,52 24,48 
	24,52 28,52 32,56 36,56 36,60 40,56 48,56 48,52 52,48 52,44 56,44 60,40 64,40 64,36 68,32 68,24 "/>
</svg>
